<?xml version="1.0" standalone="no"?>
<!DOCTYPE svg PUBLIC "-//W3C//DTD SVG 20010904//EN"
 "http://www.w3.org/TR/2001/REC-SVG-20010904/DTD/svg10.dtd">
<svg version="1.0" xmlns="http://www.w3.org/2000/svg"
 width="262.000000pt" height="193.000000pt" viewBox="0 0 262.000000 193.000000"
 preserveAspectRatio="xMidYMid meet">

<g transform="translate(0.000000,193.000000) scale(0.100000,-0.100000)"
fill="#000000" stroke="none">
<path d="M706 1751 c-8 -13 4 -41 18 -41 22 0 39 18 33 34 -7 17 -42 22 -51 7z"/>
<path d="M1140 1740 c0 -16 7 -20 30 -20 23 0 30 4 30 20 0 16 -7 20 -30 20
-23 0 -30 -4 -30 -20z"/>
<path d="M270 1730 c0 -15 7 -20 25 -20 18 0 25 5 25 20 0 15 -7 20 -25 20
-18 0 -25 -5 -25 -20z"/>
<path d="M2225 1684 c-61 -18 -105 -62 -105 -104 0 -17 5 -30 10 -30 6 0 10
-19 10 -43 0 -23 8 -58 19 -77 18 -35 81 -80 114 -80 9 0 17 -7 17 -15 0 -10
-10 -15 -33 -15 -26 0 -36 -6 -51 -31 -17 -28 -22 -31 -55 -25 -20 3 -85 6
-146 6 -60 0 -116 4 -123 8 -21 14 57 189 99 221 27 21 35 34 37 67 4 46 -15
70 -46 59 -15 -4 -25 3 -42 30 -12 19 -26 32 -31 29 -6 -3 -1 -20 11 -39 l20
-33 -38 -73 c-22 -41 -60 -113 -86 -161 l-47 -87 57 -85 57 -86 84 0 c45 0 83
-3 83 -6 0 -11 -80 -143 -91 -149 -14 -9 -49 24 -49 47 0 67 -91 130 -118 82
-7 -12 -22 3 -75 73 -36 48 -62 92 -57 97 11 11 -25 71 -59 97 -27 22 -45 22
-183 3 l-48 -7 0 37 c0 36 0 36 -41 36 l-42 0 7 -39 c5 -36 4 -39 -20 -45 -35
-9 -44 -1 -44 40 0 19 -5 34 -11 34 -7 0 -10 -15 -7 -40 2 -24 -1 -41 -8 -44
-18 -7 -24 4 -24 46 0 33 -3 38 -22 38 -39 0 -50 -14 -46 -56 3 -37 2 -39 -29
-42 -18 -2 -33 -7 -33 -13 0 -12 -62 -12 -94 1 -23 8 -26 15 -26 59 0 57 -6
63 -49 55 -30 -6 -31 -8 -24 -48 6 -36 5 -40 -9 -28 -9 7 -19 24 -22 37 -5 18
-13 25 -32 25 l-25 0 5 -97 c2 -54 5 -103 5 -110 1 -6 18 -13 39 -15 44 -4 48
-21 7 -28 -18 -3 -31 -12 -33 -23 -5 -26 121 -24 166 3 41 25 58 25 65 0 3
-11 10 -20 16 -20 6 0 11 9 11 20 0 11 4 20 9 20 5 0 11 -9 14 -20 4 -17 14
-20 71 -20 43 0 66 4 66 11 0 8 16 10 53 5 28 -4 72 -9 97 -11 25 -2 72 -6
105 -10 l60 -6 2 -45 c3 -76 75 -261 134 -346 11 -14 15 -28 11 -30 -5 -1 -32
-36 -60 -75 -58 -81 -61 -72 33 -91 l40 -8 3 -252 c1 -157 6 -252 12 -252 6 0
10 93 10 251 l0 251 31 -6 c17 -3 38 -6 45 -6 12 0 14 -44 14 -245 0 -157 4
-245 10 -245 6 0 10 87 10 241 l0 242 77 -7 c42 -3 107 -6 145 -6 l68 0 0
-235 c0 -202 2 -235 15 -235 13 0 15 33 15 234 l0 233 29 6 c16 3 40 9 55 13
l26 6 0 -246 c0 -157 4 -246 10 -246 6 0 10 91 10 254 0 218 2 255 16 267 32
26 44 67 44 149 0 99 26 184 104 338 l54 106 71 35 70 36 -54 122 c-30 67 -63
156 -73 197 -26 99 -48 135 -101 163 -50 26 -94 28 -166 7z"/>
<path d="M1087 1623 c-4 -3 -7 -30 -7 -60 l0 -53 35 0 35 0 0 60 c0 59 0 60
-28 60 -16 0 -32 -3 -35 -7z"/>
<path d="M217 1613 c-15 -4 -17 -13 -15 -56 l3 -52 35 0 c27 0 35 4 34 18 0 9
-1 35 -2 57 -2 41 -8 45 -55 33z"/>
<path d="M642 1563 c3 -58 3 -58 33 -54 41 4 40 3 37 60 -4 51 -4 51 -38 51
l-35 0 3 -57z"/>
<path d="M1277 1613 c-2 -5 -2 -29 1 -55 3 -40 7 -48 24 -48 18 0 20 4 14 38
-3 20 -6 45 -6 55 0 17 -25 24 -33 10z"/>
<path d="M400 1555 c0 -48 2 -55 20 -55 16 0 20 7 20 33 0 47 -10 77 -26 77
-10 0 -14 -15 -14 -55z"/>
<path d="M840 1555 c0 -41 4 -55 14 -55 23 0 29 18 21 66 -4 28 -11 44 -21 44
-10 0 -14 -14 -14 -55z"/>
<path d="M409 1416 c-2 -3 -2 -33 1 -68 l5 -63 33 2 c18 0 35 3 37 5 2 2 1 31
-2 66 -6 62 -6 62 -38 62 -17 0 -34 -2 -36 -4z"/>
<path d="M241 1403 c-21 -4 -23 -9 -17 -41 3 -21 6 -45 6 -54 0 -14 8 -18 36
-18 l37 0 -7 46 c-3 26 -6 53 -6 60 0 14 -6 15 -49 7z"/>
<path d="M610 1346 c0 -31 5 -56 10 -56 6 0 10 22 10 49 0 28 -4 53 -10 56 -6
4 -10 -15 -10 -49z"/>
<path d="M170 1341 c0 -28 5 -53 10 -56 6 -4 10 15 10 49 0 31 -4 56 -10 56
-5 0 -10 -22 -10 -49z"/>
<path d="M398 1275 c-3 -4 0 -28 8 -53 7 -26 14 -57 14 -69 0 -12 5 -25 12
-29 8 -5 10 6 5 43 -6 57 -29 118 -39 108z"/>
<path d="M520 1264 c0 -5 11 -25 25 -44 14 -19 25 -46 25 -61 0 -15 5 -31 11
-34 36 -23 15 65 -27 112 -18 21 -33 33 -34 27z"/>
<path d="M230 1201 l-45 -6 2 -44 c1 -24 4 -45 7 -48 2 -2 31 1 65 8 52 10 61
15 61 33 0 39 -12 66 -29 64 -9 0 -36 -4 -61 -7z"/>
<path d="M632 1201 c-8 -5 -12 -22 -10 -42 l3 -34 68 -3 c73 -3 73 -3 61 57
-6 30 -8 31 -58 31 -28 0 -57 -4 -64 -9z"/>
<path d="M156 567 c-15 -11 -17 -19 -9 -43 8 -23 16 -29 37 -29 16 -1 34 -9
42 -20 16 -22 19 -105 4 -105 -5 0 -10 8 -10 19 0 21 -17 38 -44 43 -15 2 -19
-3 -20 -25 -2 -34 18 -53 62 -59 l32 -5 0 49 c0 45 2 48 25 48 24 0 65 31 65
49 0 13 -52 20 -72 10 -10 -5 -18 -17 -18 -27 0 -13 -3 -12 -16 6 -9 13 -13
30 -10 39 8 19 -19 63 -37 63 -7 0 -21 -6 -31 -13z"/>
<path d="M390 430 c-7 -16 -19 -30 -28 -30 -12 0 -14 -10 -9 -52 4 -34 1 -67
-8 -93 -19 -52 -12 -57 8 -6 18 45 41 61 86 61 20 0 31 5 31 14 0 8 9 17 19
21 11 3 25 13 32 21 10 13 10 17 -2 24 -11 7 -11 12 -1 22 6 6 12 20 12 30 0
17 -2 17 -40 2 -38 -15 -42 -15 -59 0 -24 22 -27 21 -41 -14z"/>
<path d="M267 306 c-9 -7 -17 -19 -18 -27 -1 -8 -5 -3 -9 11 -5 16 -8 -14 -7
-80 0 -95 1 -99 6 -35 l6 69 35 7 c18 4 40 15 47 25 13 18 8 38 -8 28 -5 -3
-15 -1 -22 4 -8 7 -18 6 -30 -2z"/>
<path d="M120 240 c0 -10 -8 -23 -17 -29 -14 -7 -15 -12 -5 -23 6 -8 9 -17 6
-21 -3 -3 8 -12 24 -21 30 -15 30 -15 37 17 10 44 6 69 -13 84 -24 18 -32 16
-32 -7z"/>
<path d="M242 65 c0 -16 2 -22 5 -12 2 9 2 23 0 30 -3 6 -5 -1 -5 -18z"/>
</g>
</svg>
