<svg width="262" height="193" viewBox="0 0 262 193" fill="none" xmlns="http://www.w3.org/2000/svg">
<g clip-path="url(#clip0_9_2)">
<path d="M127.611 22.1624C133.731 22.1624 138.693 17.2013 138.693 11.0815C138.693 4.96165 133.731 0.000549316 127.611 0.000549316C121.49 0.000549316 116.529 4.96165 116.529 11.0815C116.529 17.2013 121.49 22.1624 127.611 22.1624Z" fill="#FF6884"/>
<path d="M116.667 81.3506L104.144 81.5233L99.1233 25.5476C99.0014 24.1889 99.4403 22.8152 100.328 21.7788L112.641 7.39431C114.365 5.38087 117.296 5.01759 119.459 6.55006L134.882 17.4763C136.14 18.3677 136.92 19.7613 137.021 21.2999L139.793 63.4743L146.769 71.7302L146.784 71.7477L148.568 80.9105L116.667 81.3506Z" fill="#E6E6E6"/>
<path d="M114.044 20.4096L113.842 17.8116C113.789 17.1258 114.303 16.5245 114.989 16.4713L118.64 16.188C119.326 16.1348 119.927 16.6495 119.98 17.3352L120.182 19.9333C120.235 20.619 119.72 21.2203 119.035 21.2735L115.384 21.5568C114.698 21.61 114.097 21.0954 114.044 20.4096V20.4096Z" fill="#0092BF"/>
<path d="M107.892 41.1749L107.146 31.5624C107.093 30.8766 107.608 30.2754 108.293 30.2222L113.698 29.8028C114.384 29.7496 114.985 30.2642 115.038 30.95L115.784 40.5625C115.837 41.2482 115.323 41.8494 114.637 41.9027L109.233 42.3221C108.547 42.3753 107.945 41.8606 107.892 41.1749V41.1749Z" fill="#6C6A7B"/>
<path d="M121.855 62.7276C121.2 62.7552 120.632 62.266 120.562 61.6142L119.567 52.3445C119.525 51.9488 119.668 51.567 119.96 51.2964C120.252 51.026 120.644 50.9129 121.035 50.9849L121.314 51.0366C121.869 51.1395 122.287 51.6041 122.331 52.1666L123.046 61.3847C123.073 61.7252 122.962 62.0535 122.736 62.309C122.519 62.5532 122.224 62.6996 121.9 62.7247C121.885 62.7259 121.87 62.7269 121.855 62.7276Z" fill="#6C6A7B"/>
<path d="M110.416 62.3255L109.668 52.6852C109.615 52.0046 110.106 51.4171 110.785 51.3475L115.687 50.8467C116.368 50.7844 116.982 51.2742 117.055 51.9551L118.095 61.6933C118.131 62.0314 118.032 62.3617 117.814 62.6232C117.597 62.8847 117.29 63.0432 116.951 63.0695L111.756 63.4726C111.07 63.5258 110.469 63.0112 110.416 62.3255V62.3255Z" fill="#6C6A7B"/>
<path d="M139.961 66.66L144.342 73.205L145.381 80.8673L148.462 80.824L146.702 71.7869L139.708 63.5088C139.239 64.5319 139.335 65.7249 139.961 66.66Z" fill="#CD3737"/>
<path d="M145.087 78.674L132.605 79.8144L132.621 79.9896L145.103 78.8491L145.087 78.674Z" fill="#6C6A7B"/>
<path d="M144.209 77.1851L132.368 78.1971L132.383 78.3723L144.224 77.3604L144.209 77.1851Z" fill="#6C6A7B"/>
<path d="M143.471 75.6513L132.156 76.7521L132.173 76.9272L143.488 75.8264L143.471 75.6513Z" fill="#6C6A7B"/>
<path d="M142.997 74.1058L132.142 75.3117L132.162 75.4866L143.017 74.2808L142.997 74.1058Z" fill="#6C6A7B"/>
<path d="M142.362 72.7462L131.935 73.9252L131.954 74.1001L142.382 72.9211L142.362 72.7462Z" fill="#6C6A7B"/>
<path d="M141.568 71.5679L131.384 72.3582L131.397 72.5336L141.582 71.7433L141.568 71.5679Z" fill="#6C6A7B"/>
<path d="M140.945 70.3783L131.057 71.2623L131.072 71.4375L140.961 70.5535L140.945 70.3783Z" fill="#6C6A7B"/>
<path d="M140.322 69.1927L130.756 70.2554L130.776 70.4303L140.342 69.3676L140.322 69.1927Z" fill="#6C6A7B"/>
<path d="M139.878 67.9987L130.421 68.9001L130.437 69.0752L139.895 68.1739L139.878 67.9987Z" fill="#6C6A7B"/>
<path d="M139.081 66.8387L130.035 67.8258L130.054 68.0007L139.1 67.0137L139.081 66.8387Z" fill="#6C6A7B"/>
<path d="M138.649 65.7962L129.668 66.5814L129.683 66.7567L138.665 65.9714L138.649 65.7962Z" fill="#6C6A7B"/>
<path d="M128.724 62.9336L127.801 51.0415C127.748 50.3556 128.262 49.7544 128.948 49.7012L134.703 49.2546C135.389 49.2013 135.99 49.716 136.044 50.4018L136.967 62.294C137.02 62.9797 136.505 63.5809 135.82 63.6341L130.064 64.0807C129.379 64.1339 128.777 63.6193 128.724 62.9336Z" fill="#0092BF"/>
<path d="M116.667 81.3506L106.429 81.4923L106.346 81.4933L105.734 73.6096C105.657 72.6126 106.405 71.7384 107.402 71.6611L117.465 70.8802C118.462 70.8028 119.336 71.5511 119.414 72.5481L120.076 81.0861L119.989 81.0929L116.667 81.3506Z" fill="#CD3737"/>
<path d="M127.751 41.3098L127.046 32.2234C126.993 31.5376 127.508 30.9363 128.193 30.8831L130.09 30.7359C130.776 30.6827 131.377 31.1974 131.431 31.8831L132.136 40.9696C132.189 41.6553 131.674 42.2565 130.989 42.3097L129.092 42.4569C128.406 42.5101 127.805 41.9955 127.751 41.3098V41.3098Z" fill="#6C6A7B"/>
<path d="M132.771 80.9831L131.646 73.308L129.496 66.0654L128.901 64.0828C127.953 63.5401 126.793 64.3157 126.931 65.3995L127.041 66.2559L129.191 73.4986L130.316 81.1736" fill="#CD3737"/>
<path d="M72.7797 81.9335L60.2572 82.1062L55.2365 26.1305C55.1147 24.7718 55.5536 23.3981 56.4408 22.3617L68.7547 7.97723C70.4783 5.96354 73.4092 5.6006 75.5723 7.13299L90.995 18.0592C92.2533 18.9506 93.033 20.3442 93.1341 21.8828L95.9067 64.0572L102.882 72.3131L102.897 72.3306L104.681 81.4934L72.7797 81.9335Z" fill="#E6E6E6"/>
<path d="M70.1568 20.9925L69.9552 18.3945C69.9019 17.7087 70.4166 17.1075 71.1026 17.0543L74.7531 16.771C75.4389 16.7178 76.0402 17.2324 76.0934 17.9182L76.295 20.5162C76.3482 21.202 75.8337 21.8032 75.1478 21.8564L71.4973 22.1397C70.8113 22.1929 70.21 21.6783 70.1568 20.9925Z" fill="#0092BF"/>
<path d="M64.0054 41.7578L63.2594 32.1453C63.2061 31.4596 63.7208 30.8583 64.4067 30.8051L69.8111 30.3857C70.4968 30.3325 71.0981 30.8471 71.1513 31.5329L71.8974 41.1454C71.9506 41.8312 71.436 42.4324 70.7502 42.4856L65.3459 42.905C64.66 42.9582 64.0587 42.4436 64.0054 41.7578V41.7578Z" fill="#6C6A7B"/>
<path d="M76.1929 52.0084C75.9421 52.2406 75.8193 52.5689 75.8558 52.9087L76.8501 62.1784C76.9102 62.7383 77.3981 63.1584 77.9607 63.1347C78.2565 63.1236 78.5227 62.9946 78.7172 62.7752C78.912 62.5557 79.0067 62.2738 78.984 61.9813L78.2686 52.7632C78.2311 52.2799 77.872 51.8809 77.3953 51.7926L77.1163 51.7409C77.0219 51.7234 76.9275 51.7185 76.8348 51.7257C76.5978 51.7441 76.3732 51.8414 76.1929 52.0084Z" fill="#6C6A7B"/>
<path d="M61.3695 64.2483C61.1062 64.0308 60.9466 63.7235 60.9202 63.383L60.2047 54.1649C60.161 53.6024 60.5024 53.0789 61.0347 52.8916L61.3024 52.7975C61.6775 52.666 62.0826 52.7173 62.4127 52.9394C62.743 53.1617 62.9433 53.5171 62.9624 53.9144L63.4101 63.2265C63.4417 63.8813 62.9562 64.4522 62.3046 64.526C62.2895 64.5277 62.2743 64.529 62.2592 64.5302C61.9357 64.5553 61.6213 64.456 61.3695 64.2483H61.3695Z" fill="#6C6A7B"/>
<path d="M96.0738 67.243L100.455 73.7879L101.494 81.4502L104.575 81.407L102.815 72.3699L95.8209 64.0918C95.3521 65.1148 95.4478 66.3078 96.0738 67.243H96.0738Z" fill="#CD3737"/>
<path d="M101.2 79.2569L88.718 80.3974L88.7341 80.5725L101.216 79.4321L101.2 79.2569Z" fill="#6C6A7B"/>
<path d="M100.322 77.7681L88.4817 78.78L88.4967 78.9553L100.337 77.9433L100.322 77.7681Z" fill="#6C6A7B"/>
<path d="M99.5844 76.2343L88.2688 77.335L88.2859 77.5101L99.6015 76.4094L99.5844 76.2343Z" fill="#6C6A7B"/>
<path d="M99.1105 74.6888L88.2554 75.8946L88.2749 76.0696L99.13 74.8637L99.1105 74.6888Z" fill="#6C6A7B"/>
<path d="M98.4756 73.3292L88.0478 74.5081L88.0676 74.683L98.4954 73.504L98.4756 73.3292Z" fill="#6C6A7B"/>
<path d="M97.6814 72.1508L87.497 72.9411L87.5106 73.1165L97.695 72.3262L97.6814 72.1508Z" fill="#6C6A7B"/>
<path d="M97.0587 70.9612L87.17 71.8452L87.1857 72.0204L97.0743 71.1364L97.0587 70.9612Z" fill="#6C6A7B"/>
<path d="M96.4354 69.7757L86.8695 70.8383L86.8889 71.0132L96.4549 69.9506L96.4354 69.7757Z" fill="#6C6A7B"/>
<path d="M95.9914 68.5817L86.5338 69.4831L86.5505 69.6582L96.0081 68.7568L95.9914 68.5817Z" fill="#6C6A7B"/>
<path d="M95.1943 67.4217L86.1482 68.4087L86.1673 68.5837L95.2134 67.5966L95.1943 67.4217Z" fill="#6C6A7B"/>
<path d="M94.7625 66.3791L85.7812 67.1644L85.7965 67.3396L94.7778 66.5544L94.7625 66.3791Z" fill="#6C6A7B"/>
<path d="M84.8373 63.5166L83.9143 51.6244C83.8611 50.9386 84.3757 50.3373 85.0616 50.2841L90.8167 49.8375C91.5026 49.7843 92.1038 50.2989 92.157 50.9848L93.08 62.8769C93.1332 63.5626 92.6186 64.1639 91.9328 64.2171L86.1776 64.6637C85.4918 64.7169 84.8905 64.2023 84.8373 63.5166Z" fill="#0092BF"/>
<path d="M72.7797 81.9335L62.5417 82.0752L62.4593 82.0763L61.8474 74.1926C61.77 73.1956 62.5183 72.3214 63.5154 72.244L73.5782 71.4631C74.5753 71.3858 75.4494 72.134 75.5268 73.1311L76.1895 81.6691L76.1018 81.6759L72.7797 81.9335Z" fill="#CD3737"/>
<path d="M83.8647 41.8927L83.1594 32.8063C83.1062 32.1205 83.6209 31.5193 84.3067 31.4661L86.2036 31.3189C86.8894 31.2657 87.4907 31.7803 87.5439 32.4661L88.2491 41.5525C88.3023 42.2382 87.7878 42.8395 87.1019 42.8927L85.205 43.0399C84.5192 43.0931 83.9179 42.5785 83.8647 41.8927V41.8927Z" fill="#6C6A7B"/>
<path d="M88.8847 81.566L87.7597 73.891L85.6097 66.6483L85.0147 64.6657C84.0662 64.123 82.9058 64.8986 83.0447 65.9825L83.1544 66.8389L85.3045 74.0815L86.4295 81.7565" fill="#CD3737"/>
<path d="M28.893 82.5165L16.3705 82.6892L11.3498 26.7134C11.228 25.3548 11.6669 23.9811 12.5541 22.9447L24.8679 8.56018C26.5916 6.54657 29.5226 6.18362 31.6854 7.71595L47.1083 18.6422C48.3665 19.5335 49.1461 20.9272 49.2473 22.4657L52.02 64.6401L58.9955 72.8961L59.0101 72.9135L60.7947 82.0764L28.893 82.5164L28.893 82.5165Z" fill="#E6E6E6"/>
<path d="M26.2701 21.5755L26.0684 18.9774C26.0152 18.2917 26.5299 17.6904 27.2158 17.6372L30.8664 17.3539C31.5521 17.3007 32.1534 17.8153 32.2066 18.5011L32.4083 21.0992C32.4615 21.7849 31.9468 22.3862 31.2611 22.4394L27.6105 22.7227C26.9246 22.7759 26.3233 22.2613 26.2701 21.5755Z" fill="#0092BF"/>
<path d="M20.1187 42.3408L19.3726 32.7283C19.3194 32.0425 19.8341 31.4413 20.52 31.3881L25.9243 30.9687C26.6101 30.9155 27.2114 31.4301 27.2646 32.1159L28.0107 41.7283C28.0639 42.4141 27.5492 43.0154 26.8635 43.0686L21.4591 43.4879C20.7732 43.5412 20.1719 43.0265 20.1187 42.3408V42.3408Z" fill="#6C6A7B"/>
<path d="M17.1773 53.5576L17.4449 53.4635C18.177 53.2061 18.9505 53.7266 18.9877 54.5017L19.4356 63.8137C19.4649 64.4242 19.0153 64.9527 18.4079 65.0215C17.7556 65.0955 17.172 64.6136 17.1212 63.9591L16.4057 54.7411C16.3651 54.2174 16.6816 53.7318 17.1773 53.5575V53.5576V53.5576Z" fill="#6C6A7B"/>
<path d="M22.6425 63.4914L21.8942 53.8511C21.8414 53.1705 22.332 52.583 23.0113 52.5134L27.914 52.0126C28.5975 51.9485 29.2086 52.4401 29.2814 53.121L30.3219 62.8592C30.3579 63.1973 30.2581 63.5276 30.0406 63.7891C29.8233 64.0506 29.5169 64.2091 29.1778 64.2354L23.9829 64.6385C23.297 64.6918 22.6957 64.1771 22.6425 63.4914H22.6425Z" fill="#6C6A7B"/>
<path d="M52.1871 67.8259L56.5682 74.3709L57.6076 82.0331L60.6883 81.9899L58.9282 72.9528L51.9341 64.6747C51.4653 65.6977 51.5611 66.8907 52.1871 67.8259H52.1871Z" fill="#CD3737"/>
<path d="M57.3135 79.8399L44.8313 80.9803L44.8473 81.1555L57.3295 80.015L57.3135 79.8399Z" fill="#6C6A7B"/>
<path d="M56.4354 78.351L44.595 79.3629L44.61 79.5382L56.4503 78.5263L56.4354 78.351Z" fill="#6C6A7B"/>
<path d="M55.6977 76.8172L44.3821 77.918L44.3991 78.0931L55.7147 76.9923L55.6977 76.8172Z" fill="#6C6A7B"/>
<path d="M55.2238 75.2717L44.3687 76.4776L44.3881 76.6525L55.2432 75.4466L55.2238 75.2717Z" fill="#6C6A7B"/>
<path d="M54.5889 73.9121L44.1611 75.0911L44.1808 75.266L54.6087 74.087L54.5889 73.9121Z" fill="#6C6A7B"/>
<path d="M53.7946 72.7338L43.6102 73.5241L43.6239 73.6995L53.8082 72.9091L53.7946 72.7338Z" fill="#6C6A7B"/>
<path d="M53.1719 71.5442L43.2833 72.4282L43.299 72.6034L53.1876 71.7194L53.1719 71.5442Z" fill="#6C6A7B"/>
<path d="M52.5487 70.3586L42.9828 71.4213L43.0022 71.5962L52.5681 70.5335L52.5487 70.3586Z" fill="#6C6A7B"/>
<path d="M52.1047 69.1646L42.6471 70.066L42.6638 70.2411L52.1214 69.3398L52.1047 69.1646Z" fill="#6C6A7B"/>
<path d="M51.3075 68.0046L42.2615 68.9917L42.2806 69.1666L51.3266 68.1796L51.3075 68.0046Z" fill="#6C6A7B"/>
<path d="M50.8757 66.9621L41.8945 67.7473L41.9098 67.9225L50.8911 67.1373L50.8757 66.9621Z" fill="#6C6A7B"/>
<path d="M40.9506 64.0995L40.0275 52.2074C39.9743 51.5215 40.489 50.9203 41.1749 50.867L46.93 50.4204C47.6158 50.3672 48.217 50.8819 48.2703 51.5677L49.1933 63.4599C49.2465 64.1456 48.7318 64.7468 48.0461 64.8L42.291 65.2466C41.6051 65.2998 41.0038 64.7852 40.9506 64.0995H40.9506Z" fill="#0092BF"/>
<path d="M28.893 82.5165L18.655 82.6582L18.5725 82.6592L17.9606 74.7755C17.8833 73.7785 18.6316 72.9043 19.6287 72.827L29.6915 72.0461C30.6886 71.9687 31.5627 72.717 31.6401 73.714L32.3027 82.252L32.2151 82.2588L28.893 82.5165Z" fill="#CD3737"/>
<path d="M39.978 42.4756L39.2727 33.3892C39.2195 32.7035 39.7342 32.1022 40.4201 32.049L42.3169 31.9018C43.0026 31.8486 43.6039 32.3632 43.6572 33.049L44.3624 42.1354C44.4156 42.8212 43.9009 43.4224 43.2152 43.4756L41.3184 43.6228C40.6325 43.676 40.0312 43.1614 39.978 42.4756V42.4756Z" fill="#6C6A7B"/>
<path d="M44.998 82.149L43.873 74.4739L41.723 67.2313L41.128 65.2486C40.1795 64.706 39.0191 65.4815 39.158 66.5654L39.2677 67.4218L41.4177 74.6645L42.5427 82.3395" fill="#CD3737"/>
<path d="M160.372 80.6756L7.62939e-06 82.7544L0.00456836 83.1061L160.377 81.0274L160.372 80.6756Z" fill="#CD3737"/>
<path d="M53.2104 154.202C52.8515 153.597 51.2986 154.245 51.0131 153.696C50.7286 153.148 52.1714 152.315 52.9957 150.41C53.1444 150.066 54.0811 147.901 53.3877 147.234C52.0732 145.967 46.0583 151.192 43.9533 149.483C43.4913 149.107 43.1686 148.358 41.7705 147.142C41.2143 146.658 40.8779 146.44 40.5524 146.521C40.0906 146.636 40.054 147.254 39.5587 148.47C38.816 150.292 38.3767 150.182 37.9439 151.636C37.6227 152.716 37.6961 153.343 37.3181 153.466C36.7831 153.639 36.2907 152.494 35.6128 152.596C34.921 152.701 34.5027 154.034 34.3706 155.032C34.1227 156.905 34.8107 158.141 35.1919 159.441C35.6063 160.853 35.8522 163.001 34.8953 166.041L25.4242 192.724C27.5151 187.249 33.5694 172.24 36.1134 166.662C36.8478 165.052 37.6587 163.419 39.3236 162.775C40.9266 162.154 43.1282 162.525 45.9348 161.849C46.2626 161.77 47.1722 161.538 47.2867 161.003C47.3814 160.561 46.8463 160.314 46.9285 159.9C47.0388 159.344 48.091 159.337 49.3839 158.696C50.2956 158.244 50.8636 157.707 51.3521 157.245C51.4993 157.105 53.6883 155.008 53.2105 154.202H53.2104V154.202Z" fill="#3F3F3F"/>
<path d="M15.9483 168.249C15.5476 168.25 15.4177 169.2 15.0657 169.181C14.715 169.163 14.722 168.214 14.0248 167.26C13.8991 167.088 13.1068 166.004 12.5788 166.151C11.5781 166.431 12.4073 170.89 10.9606 171.43C10.6431 171.549 10.1823 171.491 9.18193 171.826C8.78395 171.959 8.57968 172.061 8.52565 172.245C8.449 172.505 8.74182 172.701 9.19545 173.295C9.87575 174.185 9.69498 174.369 10.2839 175.001C10.721 175.47 11.0503 175.615 11.0012 175.836C10.9318 176.148 10.2277 176.059 10.0824 176.422C9.93417 176.791 10.4678 177.381 10.9197 177.734C11.7675 178.396 12.5727 178.415 13.3206 178.603C14.1334 178.807 15.2587 179.306 16.4751 180.653L26.8395 193C24.7553 190.394 19.135 183.092 17.1314 180.235C16.553 179.41 15.9853 178.541 16.1494 177.537C16.3073 176.572 17.1243 175.598 17.6023 174.026C17.6581 173.842 17.807 173.329 17.5774 173.118C17.3877 172.944 17.1121 173.136 16.9325 172.976C16.6916 172.761 16.9918 172.243 17.0502 171.424C17.0914 170.846 16.9914 170.412 16.9054 170.039C16.8795 169.926 16.4816 168.247 15.9483 168.249V168.249H15.9483Z" fill="#3F3F3F"/>
<path d="M23.9409 170.043L23.6995 167.888L23.8098 167.725C24.3201 166.97 24.5802 166.232 24.5834 165.532C24.5839 165.421 24.5787 165.309 24.5735 165.196C24.5527 164.747 24.5267 164.188 24.818 163.537C24.9813 163.174 25.4401 162.333 26.13 162.437C26.3157 162.463 26.4561 162.548 26.5628 162.648C26.5784 162.623 26.5945 162.598 26.6117 162.571C26.8265 162.244 26.9966 162.103 27.1605 161.968C27.2864 161.864 27.4164 161.757 27.6204 161.503C27.7098 161.392 27.7795 161.294 27.8383 161.212C28.0168 160.963 28.2498 160.666 28.6608 160.672C29.0998 160.692 29.3298 161.056 29.4822 161.296C29.7543 161.724 29.8776 162.033 29.9592 162.238C29.9889 162.313 30.0227 162.398 30.0399 162.424C30.1814 162.632 31.3316 162.437 31.7649 162.366C32.7382 162.204 33.5804 162.064 33.9274 162.677C34.1761 163.116 33.9914 163.697 33.362 164.449C33.1658 164.683 32.9572 164.861 32.772 165C32.9255 165.092 33.0628 165.232 33.1185 165.453C33.2496 165.975 32.8007 166.499 31.7847 167.01C31.5324 167.138 31.1927 167.309 30.7167 167.391C30.4925 167.43 30.2906 167.439 30.1179 167.444C30.1143 167.544 30.0909 167.652 30.03 167.764C29.8516 168.091 29.4801 168.247 28.9204 168.21C28.3044 168.178 27.7972 168.06 27.3499 167.957C26.9592 167.868 26.6226 167.792 26.3583 167.809C25.8683 167.849 25.4906 168.241 25.0474 168.75L23.9409 170.043H23.9409Z" fill="#3F3F3F"/>
<path d="M25.0606 157.215L23.0376 157.995L22.8516 157.93C21.9915 157.628 21.212 157.563 20.5339 157.738C20.4261 157.765 20.3197 157.799 20.2113 157.832C19.7818 157.967 19.248 158.133 18.5441 158.017C18.1514 157.951 17.2219 157.72 17.1476 157.027C17.1256 156.841 17.1725 156.683 17.2421 156.555C17.214 156.546 17.1857 156.537 17.1552 156.527C16.7837 156.402 16.6047 156.273 16.4323 156.149C16.2997 156.054 16.163 155.955 15.8658 155.822C15.7354 155.764 15.6231 155.721 15.5287 155.685C15.2429 155.576 14.897 155.426 14.7978 155.027C14.7065 154.597 14.9994 154.282 15.1932 154.074C15.5389 153.702 15.8065 153.505 15.984 153.374C16.049 153.326 16.1219 153.272 16.1427 153.249C16.3081 153.059 15.8282 151.996 15.6498 151.595C15.2459 150.694 14.8965 149.915 15.4022 149.424C15.7639 149.072 16.3723 149.104 17.2596 149.522C17.5358 149.652 17.7608 149.809 17.9426 149.952C17.9922 149.781 18.0933 149.612 18.2925 149.503C18.7645 149.243 19.3846 149.545 20.1374 150.398C20.3252 150.609 20.5764 150.894 20.7767 151.334C20.8708 151.541 20.931 151.734 20.9799 151.9C21.0774 151.878 21.188 151.873 21.3111 151.904C21.6734 151.993 21.9186 152.313 22.0243 152.864C22.1494 153.468 22.1643 153.988 22.1781 154.447C22.1907 154.847 22.2026 155.192 22.2867 155.443C22.4493 155.907 22.9245 156.173 23.529 156.473L25.0606 157.215L25.0606 157.215Z" fill="#3F3F3F"/>
<path d="M23.9409 150.868L23.6995 148.713L23.8098 148.55C24.3201 147.794 24.5802 147.057 24.5834 146.357C24.5839 146.245 24.5787 146.134 24.5735 146.021C24.5527 145.571 24.5267 145.013 24.818 144.361C24.9813 143.998 25.4401 143.158 26.13 143.262C26.3157 143.288 26.4561 143.373 26.5628 143.473C26.5784 143.448 26.5945 143.423 26.6117 143.396C26.8265 143.068 26.9966 142.928 27.1605 142.793C27.2864 142.689 27.4164 142.581 27.6204 142.328C27.7098 142.216 27.7795 142.118 27.8383 142.036C28.0168 141.788 28.2498 141.491 28.6608 141.496C29.0998 141.517 29.3298 141.88 29.4822 142.121C29.7543 142.549 29.8776 142.858 29.9592 143.063C29.9889 143.138 30.0227 143.222 30.0399 143.248C30.1814 143.456 31.3316 143.262 31.7649 143.191C32.7382 143.029 33.5804 142.888 33.9274 143.502C34.1761 143.941 33.9914 144.522 33.362 145.274C33.1658 145.508 32.9572 145.686 32.772 145.825C32.9255 145.917 33.0628 146.057 33.1185 146.278C33.2496 146.8 32.8007 147.323 31.7847 147.835C31.5324 147.963 31.1927 148.134 30.7167 148.216C30.4925 148.254 30.2906 148.264 30.1179 148.269C30.1143 148.369 30.0909 148.477 30.03 148.588C29.8516 148.916 29.4801 149.072 28.9204 149.035C28.3044 149.002 27.7972 148.885 27.3499 148.782C26.9592 148.692 26.6226 148.616 26.3583 148.634C25.8683 148.674 25.4906 149.066 25.0474 149.574L23.9409 150.868H23.9409Z" fill="#3F3F3F"/>
<path d="M26.1456 192.689L25.694 192.406L25.5848 191.885L25.694 192.406L25.1676 192.466C25.1592 192.417 25.1306 192.305 25.0874 192.129C24.8518 191.166 24.1334 188.234 23.5341 183.617C23.1158 180.394 22.8791 177.081 22.8302 173.767C22.7813 170.449 22.9384 167.936 23.0643 165.917C23.1595 164.394 23.275 162.944 23.3884 161.531C23.6901 157.757 23.9747 154.191 23.763 150.244C23.7162 149.363 23.6178 147.529 22.5462 145.578C21.9245 144.446 21.0683 143.441 20.0008 142.592L20.6646 141.757C21.8429 142.696 22.7902 143.809 23.4805 145.066C24.6687 147.23 24.7758 149.228 24.8273 150.188C25.0427 154.205 24.755 157.805 24.4502 161.615C24.3378 163.023 24.2223 164.467 24.1276 165.984C24.0028 167.984 23.8472 170.475 23.8956 173.751C23.9435 177.025 24.1776 180.297 24.5901 183.48C25.1821 188.038 25.8901 190.926 26.1227 191.875C26.2465 192.382 26.2725 192.488 26.1455 192.689V192.689H26.1456Z" fill="#3F3F3F"/>
<path d="M18.0469 144.284C18.0032 144.284 17.959 144.283 17.9142 144.28C17.007 144.231 16.1668 143.688 15.4167 142.667C15.065 142.186 14.885 141.638 14.5261 140.544C14.4704 140.376 14.1999 139.521 14.0355 138.344C13.9278 137.575 13.9414 137.254 14.0938 136.97C14.2628 136.654 14.5365 136.433 14.8444 136.284C14.8309 136.182 14.8418 136.077 14.8861 135.97C15.0676 135.526 15.5504 135.584 15.8115 135.612C15.9437 135.629 16.1086 135.651 16.2865 135.641C16.5664 135.628 16.7167 135.545 16.9446 135.42C17.1625 135.3 17.4335 135.151 17.8357 135.069C18.6285 134.904 19.2928 135.129 19.5118 135.202C20.6641 135.586 21.2321 136.482 21.8897 137.519C22.0208 137.727 22.4708 138.485 22.7678 139.523C22.9821 140.272 22.952 140.605 22.8875 140.852C22.7564 141.361 22.4468 141.652 21.6608 142.295C20.8399 142.968 20.4279 143.305 20.0741 143.51C19.2507 143.986 18.7336 144.284 18.0469 144.284V144.284H18.0469Z" fill="#3F3F3F"/>
<path d="M256.115 192.204C256.115 192.402 255.955 192.561 255.758 192.561H8.23655V191.847H255.758C255.955 191.847 256.115 192.007 256.115 192.204Z" fill="#E6E6E6"/>
<path d="M184.659 79.3237C184.659 79.3237 171.335 80.926 173.583 70.3925C175.83 59.8591 188.573 40.4032 188.573 40.4032L195.804 44.4581L187.502 64.0801L191.076 66.8993L184.659 79.3237V79.3237L184.659 79.3237Z" fill="#A0616A"/>
<path d="M228.321 66.5001L226.444 81.94L179.398 81.7097L188.846 65.2898L228.321 66.5001Z" fill="#0092BF"/>
<path d="M200.363 41.2236C203.242 37.2031 203.473 32.4381 200.879 30.5808C198.285 28.7236 193.848 30.4772 190.969 34.4977C188.09 38.5182 187.859 43.2832 190.453 45.1405C193.047 46.9978 197.484 45.2441 200.363 41.2236Z" fill="#A0616A"/>
<path d="M226.686 125.365H223.798V192.373H226.686V125.365Z" fill="#6C6A7B"/>
<path d="M212.821 125.365H209.933V192.373H212.821V125.365Z" fill="#6C6A7B"/>
<path d="M135.12 83.197H132.231V192.373H135.12V83.197Z" fill="#E6E6E6"/>
<path d="M181.625 125.365H178.737V192.373H181.625V125.365Z" fill="#6C6A7B"/>
<path d="M170.571 125.365H167.683V192.373H170.571V125.365Z" fill="#6C6A7B"/>
<path d="M221.198 123.921H165.418L154.717 139.097L210.222 142.406L221.198 123.921Z" fill="#6C6A7B"/>
<path d="M119.059 71.9975L119.312 60.9916L85.6464 63.5808L85.4742 71.0386L119.059 71.9975Z" fill="#A0616A"/>
<path d="M96.2738 62.2659L94.6637 66.1393L92.3513 66.2131C92.3513 66.2131 95.0588 67.0421 95.8109 71.9616L93.5891 72.6276C93.5891 72.6276 91.4553 74.6181 87.4665 74.425L76.7719 73.5305L76.7307 69.8026L84.1224 68.9485C84.1224 68.9485 85.7694 67.865 77.6161 63.4106C77.6161 63.4106 74.9153 61.7592 77.3443 53.6041C77.6782 52.4833 78.6867 51.6782 79.856 51.6529C80.5014 51.6389 81.1061 51.8707 81.3475 52.6722C81.9619 54.7124 81.3402 56.7463 83.0288 58.0198C84.7175 59.2933 96.2738 62.2659 96.2738 62.2659L96.2738 62.2659Z" fill="#2F2E41"/>
<path d="M217.023 114.074C217.023 114.074 205.408 133.829 179.123 130.268C172.868 129.421 167.365 125.703 164.23 120.225C158.171 109.637 148.969 91.0986 151.952 80.6012L107.498 72.1176L103.995 61.3225L152.106 55.0734C156.362 54.5207 160.53 56.5899 162.663 60.3136L186.099 101.238L193.085 102.001L217.023 114.074V114.074Z" fill="#2F2E41"/>
<path d="M119.936 76.5029L119.303 65.5123L85.9551 70.8013L86.3835 78.2488L119.936 76.5029Z" fill="#A0616A"/>
<path d="M96.4423 68.6357L95.1491 72.6261L92.85 72.8857C92.85 72.8857 95.6155 73.4943 96.761 78.3373L94.6 79.1798C94.6 79.1798 92.6333 81.3356 88.6419 81.464L77.9099 81.4327L77.569 77.7201L84.8679 76.2742C84.8679 76.2742 86.4224 75.0618 77.9372 71.2777C77.9372 71.2777 75.1122 69.8489 76.8773 61.5248C77.1199 60.3807 78.0603 59.4972 79.2238 59.3779C79.8659 59.3121 80.4874 59.4945 80.7925 60.2739C81.5691 62.2581 81.113 64.3353 82.8986 65.4689C84.6843 66.6024 96.4423 68.6357 96.4423 68.6357L96.4423 68.6357H96.4423Z" fill="#2F2E41"/>
<path d="M220.969 110.562C220.969 110.562 210.98 131.187 184.495 129.753C178.192 129.412 172.408 126.148 168.842 120.94C161.95 110.874 151.287 93.136 153.415 82.4326L108.423 77.5526L104.063 67.0743L151.515 56.9752C155.712 56.0819 160.034 57.8091 162.459 61.3492L189.112 100.256L196.137 100.454L220.969 110.562H220.969Z" fill="#2F2E41"/>
<path d="M190.52 23.4692L188.21 25.2021L200.341 41.954L202.652 41.3763L190.52 23.4692Z" fill="#6C6A7B"/>
<path d="M222.064 60.6687L235.352 60.091L241.129 86.0852C241.129 86.0852 228.997 131.719 214.554 129.987C214.554 129.987 205.6 123.344 205.6 121.033C205.6 118.722 193.468 112.946 193.468 112.946L190.58 103.126L199.245 89.8399C199.245 89.8399 202.711 79.4422 214.265 73.6657L222.065 60.6687L222.064 60.6687V60.6687Z" fill="#0092BF"/>
<path d="M146.096 80.8864H27.9559V83.7746H85.7263V192.373H88.6148V83.7746H146.096V80.8864Z" fill="#E6E6E6"/>
<path d="M228.997 58.358C237.611 58.358 244.595 51.3752 244.595 42.7615C244.595 34.1478 237.611 27.165 228.997 27.165C220.382 27.165 213.399 34.1478 213.399 42.7615C213.399 51.3752 220.382 58.358 228.997 58.358Z" fill="#A0616A"/>
<path d="M174.611 62.6904L163.716 67.0228L185.091 95.3276L192.602 89.5511L174.611 62.6904Z" fill="#E6E6E6"/>
<path d="M217.154 116.989C217.154 116.989 213.11 129.784 204.445 123.387C195.779 116.989 183.322 97.3493 183.322 97.3493L190.002 92.4393L204.444 108.104L208.488 106.014L217.154 116.989L217.154 116.989Z" fill="#A0616A"/>
<path d="M223.509 71.9328L236.796 80.0199L217.154 122.766L204.445 105.436L223.509 71.9328Z" fill="#0092BF"/>
<path d="M188.413 97.5939C191.176 95.9988 191.412 91.2341 188.939 86.9517C186.466 82.6693 182.222 80.4908 179.459 82.0859C176.696 83.681 176.46 88.4457 178.933 92.7282C181.406 97.0106 185.65 99.1891 188.413 97.5939Z" fill="#A0616A"/>
<path d="M230.703 89.9832C234.706 76.8607 239.002 72.7079 243.518 75.308C246.956 77.287 247.991 81.7916 245.976 85.2084C240.841 93.9177 230.259 113.873 232.463 127.098C232.463 127.098 235.929 145.583 208.2 145.583C180.47 145.583 153.895 139.229 153.895 139.229L168.338 136.918L201.182 139.264C208.686 139.8 215.011 133.38 214.008 125.924C213.975 125.678 213.936 125.43 213.89 125.178C212.244 116.123 230.703 89.9832 230.703 89.9832V89.9832Z" fill="#6C6A7B"/>
<path d="M223.151 36.2961C221.877 39.8635 224.676 43.5678 228.456 43.3159L228.547 43.3099C231.088 46.4859 231.158 50.9786 228.717 54.2324C228.517 58.4262 229.174 62.6169 230.648 66.5481L234.79 77.5936L241.168 74.6178L244.194 82.6948L262 73.523L251.209 49.2446L247.915 36.0729C245.572 26.7018 236.012 21.0612 226.676 23.541L219.513 25.4435C213.853 26.9466 210.596 32.8711 212.359 38.4542V38.4542L223.151 36.2961" fill="#2F2E41"/>
</g>
<defs>
<clipPath id="clip0_9_2">
<rect width="262" height="193" fill="white"/>
</clipPath>
</defs>
</svg>
